<svg xmlns="http://www.w3.org/2000/svg" xmlns:xlink="http://www.w3.org/1999/xlink" viewBox="0 0 755.99 273.21"><defs><style>.cls-1{fill:none;}.cls-2{fill:#2a333a;}.cls-3{fill:#1d899b;}.cls-4{fill:#0d1a23;}.cls-5,.cls-83{fill:#fff;}.cls-6{fill:#0e2d47;}.cls-7{clip-path:url(#clip-path);}.cls-8{opacity:0.2;}.cls-13,.cls-25,.cls-68,.cls-8{isolation:isolate;}.cls-9{clip-path:url(#clip-path-2);}.cls-10{clip-path:url(#clip-path-3);}.cls-11{clip-path:url(#clip-path-4);}.cls-12{clip-path:url(#clip-path-5);}.cls-13{opacity:0.3;}.cls-14{clip-path:url(#clip-path-6);}.cls-15{fill:#cde6f8;}.cls-16{clip-path:url(#clip-path-8);}.cls-17{clip-path:url(#clip-path-9);}.cls-18{clip-path:url(#clip-path-12);}.cls-19{clip-path:url(#clip-path-13);}.cls-20{clip-path:url(#clip-path-15);}.cls-21{clip-path:url(#clip-path-16);}.cls-22{fill:#b1c8da;}.cls-23{fill:#18a2c1;}.cls-24{clip-path:url(#clip-path-19);}.cls-25{opacity:0.05;}.cls-26{clip-path:url(#clip-path-20);}.cls-27{clip-path:url(#clip-path-21);}.cls-28{clip-path:url(#clip-path-23);}.cls-29{clip-path:url(#clip-path-24);}.cls-30{fill:#555755;}.cls-31{fill:#606463;}.cls-32{fill:#3b3744;}.cls-33{clip-path:url(#clip-path-29);}.cls-34{clip-path:url(#clip-path-30);}.cls-35{clip-path:url(#clip-path-31);}.cls-36{fill:#22b7e9;}.cls-37{clip-path:url(#clip-path-33);}.cls-38{fill:#9a9c9e;}.cls-39{fill:#6d6e71;}.cls-40{fill:#211e1f;}.cls-41{fill:#7a5232;}.cls-42{fill:#88613d;}.cls-43{fill:#5f3c1a;}.cls-44{fill:#a67e52;}.cls-45{fill:#441912;}.cls-46{fill:#1878b5;}.cls-47{fill:#d5a38e;}.cls-48{fill:#32251d;}.cls-49{fill:#2f1712;}.cls-50{fill:#27130e;}.cls-51{fill:#161a26;}.cls-52{fill:#1f212b;}.cls-53{fill:#f1e8db;}.cls-54{fill:#6d4637;}.cls-55{fill:#41180f;}.cls-56{fill:#c47d55;}.cls-57{fill:#bb7851;}.cls-58{fill:#139948;}.cls-59{fill:#13a24a;}.cls-60{fill:#613c1b;}.cls-61{fill:#533219;}.cls-62{fill:#efc396;}.cls-63{fill:#333;}.cls-64{fill:#603329;}.cls-65{fill:#393939;}.cls-66{fill:#9e6748;}.cls-67{clip-path:url(#clip-path-35);}.cls-68{opacity:0.7;}.cls-69{clip-path:url(#clip-path-36);}.cls-70{clip-path:url(#clip-path-37);}.cls-71{clip-path:url(#clip-path-38);}.cls-72{fill:#d4b49d;}.cls-73{fill:#a13939;}.cls-74{fill:#cf4846;}.cls-75{fill:#683a16;}.cls-76{fill:#e2bea6;}.cls-77{fill:#5a2f11;}.cls-78{fill:#cf9277;}.cls-79{fill:#444545;}.cls-80{fill:#0f9a48;}.cls-81{fill:#3a3a3a;}.cls-82{clip-path:url(#clip-path-40);}.cls-83{fill-rule:evenodd;}</style><clipPath id="clip-path"><rect class="cls-1" x="422.71" y="14.67" width="176.7" height="94.05"/></clipPath><clipPath id="clip-path-2"><rect class="cls-1" x="422.54" y="14.42" width="181.57" height="95.03"/></clipPath><clipPath id="clip-path-3"><rect class="cls-1" x="422.54" y="14.42" width="177.33" height="95.03"/></clipPath><clipPath id="clip-path-4"><rect class="cls-1" width="755.99" height="273.21"/></clipPath><clipPath id="clip-path-5"><rect class="cls-1" x="361.25" y="100.63" width="27.76" height="3.97"/></clipPath><clipPath id="clip-path-6"><rect class="cls-1" x="360.6" y="100.12" width="28.85" height="5.09"/></clipPath><clipPath id="clip-path-8"><rect class="cls-1" x="359.52" y="108.79" width="30.4" height="6.04"/></clipPath><clipPath id="clip-path-9"><rect class="cls-1" x="358.9" y="108.6" width="31.39" height="6.79"/></clipPath><clipPath id="clip-path-12"><rect class="cls-1" x="423.41" y="103.4" width="27.76" height="3.96"/></clipPath><clipPath id="clip-path-13"><rect class="cls-1" x="423.39" y="102.66" width="28" height="5.09"/></clipPath><clipPath id="clip-path-15"><rect class="cls-1" x="421.68" y="111.55" width="30.41" height="6.04"/></clipPath><clipPath id="clip-path-16"><rect class="cls-1" x="420.84" y="111.15" width="31.39" height="6.79"/></clipPath><clipPath id="clip-path-19"><rect class="cls-1" x="65.49" y="96.04" width="556.47" height="53.96"/></clipPath><clipPath id="clip-path-20"><rect class="cls-1" x="65.33" y="89.09" width="557.44" height="61.09"/></clipPath><clipPath id="clip-path-21"><rect class="cls-1" x="65.33" y="95.88" width="557.44" height="54.3"/></clipPath><clipPath id="clip-path-23"><rect class="cls-1" x="32.87" y="89.48" width="17.1" height="54.97"/></clipPath><clipPath id="clip-path-24"><rect class="cls-1" x="32.24" y="89.09" width="17.82" height="56"/></clipPath><clipPath id="clip-path-29"><rect class="cls-1" x="662.51" y="118.95" width="45.68" height="23.57"/></clipPath><clipPath id="clip-path-30"><rect class="cls-1" x="661.81" y="118.79" width="53.45" height="24.61"/></clipPath><clipPath id="clip-path-31"><rect class="cls-1" x="661.81" y="118.79" width="46.67" height="23.76"/></clipPath><clipPath id="clip-path-33"><path class="cls-1" d="M397,20.89c0,17.08-2.3,50.61-2.3,67.71,0,3.12-.55,5.73-6.58,5.73h-.07C236,87.39,67.88,83.84,67.88,83.84c-7-.15-5.4-4.18,7.14-35.94,11-28,32-29.37,36.54-29.7,74.05-6,208.54-6.79,278-4.79a7.43,7.43,0,0,1,7.4,7.51c0,17.08-2.3,50.62-2.3,67.72,0,3.13-.56,5.75-6.65,5.72C236,87.39,67.88,83.84,67.88,83.84c-7-.15-5.4-4.18,7.14-35.94,11-28,32-29.37,36.54-29.7"/></clipPath><clipPath id="clip-path-35"><rect class="cls-1" x="90.21" y="22.3" width="86.29" height="16.44"/></clipPath><clipPath id="clip-path-36"><rect class="cls-1" x="89.94" y="18.67" width="87.39" height="20.36"/></clipPath><clipPath id="clip-path-37"><rect class="cls-1" x="89.94" y="22.06" width="87.39" height="16.97"/></clipPath><clipPath id="clip-path-38"><path class="cls-1" d="M593.53,108.77c-36.74-4.9-98.49-9.11-167-12.58,0,0-3.16-61.59-3.8-75.48-.12-2.54.85-5.9,5.09-5.9h.2l.64,0c13.3.68,23.76,1.51,30.55,2.43,47.25,6.48,104.76,56,134.91,79C603.61,103.44,598.38,109.44,593.53,108.77Z"/></clipPath><clipPath id="clip-path-40"><rect class="cls-1" x="290.97" y="126.1" width="54.75" height="54.75"/></clipPath></defs><title>Asset 1</title><g id="Layer_2" data-name="Layer 2"><g id="Layer_1-2" data-name="Layer 1"><polygon class="cls-2" points="702.27 192.16 634.04 146.84 554 185.31 575.67 237.47 688.83 238.19 702.27 192.16"/><path class="cls-3" d="M221.12,157.69v67.65h-1a57.59,57.59,0,1,0-114.33-9.82,35,35,0,0,0,.12,3.55l-5.65-64.77Z"/><path class="cls-4" d="M593.5,108.67c-36.74-4.9-98.49-9.11-167-12.58,0,0-3.16-61.59-3.8-75.48-.12-2.55.85-5.94,5.09-5.94h.2l.64,0c13.3.69,23.76,1.51,30.55,2.44,47.26,6.47,104.77,56,134.92,79,9.52,7.18,4.29,13.17-.56,12.53Zm138.31,72.4c-7.41-27.16-33.3-34.49-42-38.59-12.54-5.9-27.28-23.53-27.28-23.53,22.86,2.94,53.46,7.73,61.23,25.07q-1.15-3.33-2.34-6.42c-9.33-24.48-109.06-47.1-109.06-47.1-43.53-31.71-78.16-52.71-108.2-68.85C477.37,7.24,446.85,5.18,446.85,5.18,272.18-5.56,107.64,3.55,67.42,8.19c-3.21.36-5.63.7-7.21,1a3.34,3.34,0,0,0-2.32,1.55C44.39,34.26,37.75,66.35,34.5,94.65c0,0,3.26-5.19,14-5.17A260.72,260.72,0,0,0,50,144.41H31.48c-.08,8,0,13.42,0,14.88,0,6.88-2.94,25.09-2.94,25.09-6.89,15.73-4.43,19.17-4.43,19.17,2.46,18.67,20.65,16.23,20.65,16.23s23.31.85,61.35,2.12c-.11-1-.2-1.92-.25-2.89-.07-1.18-.12-2.36-.12-3.55a57.59,57.59,0,1,1,114.33,9.82l0,.29c109.52,3.4,249.4,7.38,355.6,9a57.6,57.6,0,1,1,111.92-19.13c0,7,4.38,13.48,2.12,19.65,36.37-1.81,39.43-12.37,39.43-12.37A150.61,150.61,0,0,0,731.81,181.07Z"/><path class="cls-5" d="M630.25,179.09a34.49,34.49,0,1,0,34.49,34.48A34.48,34.48,0,0,0,630.25,179.09Zm47,34.48a47,47,0,1,1-47-47,47,47,0,0,1,47,47Z"/><path class="cls-6" d="M731.81,181.07c-7.41-27.16-33.3-34.49-42-38.59-12.54-5.9-27.28-23.53-27.28-23.53,22.86,2.94,53.46,7.73,61.23,25.07q.64,1.81,1.26,3.72a144.18,144.18,0,0,1,6.81,33.33Z"/><rect class="cls-1" width="755.99" height="273.21"/><g class="cls-7"><g class="cls-8"><g class="cls-9"><g class="cls-10"><path class="cls-5" d="M593.53,108.67c-36.74-4.9-98.49-9.11-167-12.58,0,0-3.16-61.59-3.8-75.48-.12-2.55.85-5.94,5.09-5.94h.2l.64,0c13.3.69,23.76,1.51,30.55,2.44,47.25,6.47,104.76,56,134.91,79C603.61,103.32,598.38,109.31,593.53,108.67Z"/></g></g></g></g><g class="cls-11"><path class="cls-4" d="M394.62,107.92c0,1.84-1.8,3.49-4.7,4.71-2.66-3.81-6.42-3.54-8.7-3.59-5.75-.13-21.29-.28-21.7-.29a3.23,3.23,0,0,1-.28-1.3,4.27,4.27,0,0,1,2-3.22c.59,0,19.28.24,25.57.34.73,0,2.36,0,2.18-1.92C392.48,104,394.64,105.9,394.62,107.92Z"/></g><g class="cls-12"><g class="cls-13"><g class="cls-14"><g class="cls-14"><path class="cls-15" d="M361.25,104.27c3-2.25,8.93-3.72,15.77-3.64a36,36,0,0,1,12,2.05h0c.18,2-1.45,1.93-2.18,1.92C380.53,104.53,361.84,104.27,361.25,104.27Z"/></g></g></g></g><g class="cls-16"><g class="cls-13"><g class="cls-17"><g class="cls-17"><path class="cls-15" d="M389.92,112.67a34,34,0,0,1-13.09,2.13c-8.66-.11-15.82-2.7-17.31-6,.41,0,16,.15,21.7.29C383.53,109.13,387.26,108.86,389.92,112.67Z"/></g></g></g></g><g class="cls-11"><path class="cls-4" d="M456.78,110.72c0,1.83-1.8,3.48-4.69,4.7-2.67-3.81-6.42-3.53-8.7-3.58-5.75-.14-21.3-.28-21.71-.29a3.07,3.07,0,0,1-.28-1.3,4.28,4.28,0,0,1,2-3.23c.59,0,19.28.24,25.57.34.73,0,2.36,0,2.18-1.91C454.64,106.78,456.8,108.65,456.78,110.72Z"/></g><g class="cls-18"><g class="cls-13"><g class="cls-19"><g class="cls-19"><path class="cls-15" d="M423.41,107c3-2.24,8.93-3.71,15.77-3.62a35.7,35.7,0,0,1,12,2c.18,2-1.45,1.93-2.18,1.91C442.69,107.26,424,107.07,423.41,107Z"/></g></g></g></g><g class="cls-20"><g class="cls-13"><g class="cls-21"><g class="cls-21"><path class="cls-15" d="M452.09,115.42a33.81,33.81,0,0,1-13.1,2.14c-8.65-.11-15.82-2.7-17.31-6,.41,0,16,.15,21.71.29C445.67,111.89,449.42,111.61,452.09,115.42Z"/></g></g></g></g><g class="cls-11"><path class="cls-22" d="M221,219.13a65.36,65.36,0,0,1-.84,10.45l-114-3.61-.25-3.06c-.07-1.25-.11-2.51-.11-3.78,0-33.8,25.78-61.22,57.59-61.22S221,185.33,221,219.13Z"/><path class="cls-2" d="M223.34,233.51l-120.67-3.86-.52-6.43c-.09-1.42-.12-2.74-.12-4.09,0-35.84,27.52-65,61.36-65s61.38,29.16,61.38,65a70.28,70.28,0,0,1-.85,11Z"/><path class="cls-15" d="M397,20.8c0,17.08-2.3,50.61-2.3,67.71,0,3.12-.55,5.73-6.58,5.73h-.07C236,87.3,67.88,83.75,67.88,83.75c-7-.15-5.4-4.18,7.14-35.94,11-28,32-29.37,36.54-29.7,74.05-6,208.54-6.79,278-4.79a7.43,7.43,0,0,1,7.4,7.51c0,17.08-2.3,50.62-2.3,67.71,0,3.13-.56,5.76-6.65,5.73C236,87.3,67.88,83.75,67.88,83.75c-7-.15-5.4-4.18,7.14-35.94,11-28,32-29.37,36.54-29.7"/><path class="cls-15" d="M50,144.41H31.48a490,490,0,0,1,3-49.79s3.26-5.19,14-5.18A260.41,260.41,0,0,0,50,144.41Z"/><circle class="cls-23" cx="164.71" cy="213.57" r="34.48" transform="translate(-23.78 20.66) rotate(-6.7)"/><circle class="cls-23" cx="630.25" cy="213.57" r="34.48" transform="translate(318.48 801.48) rotate(-80.78)"/><path class="cls-5" d="M164.71,179.09a34.49,34.49,0,1,0,34.49,34.48A34.49,34.49,0,0,0,164.71,179.09Zm47,34.48a47,47,0,1,1-47-47,47,47,0,0,1,47,47Z"/></g><g class="cls-24"><g class="cls-25"><g class="cls-26"><g class="cls-27"><path class="cls-5" d="M65.49,96.26S585.55,89.48,622,150C622,150,551.7,127.94,65.49,96.26Z"/></g></g></g></g><g class="cls-11"><path class="cls-6" d="M593.53,108.67c-36.74-4.9-98.49-9.11-167-12.58,0,0-3.16-61.59-3.8-75.48-.12-2.55.85-5.94,5.09-5.94h.2l.64,0c13.3.69,23.76,1.51,30.55,2.44,47.25,6.47,104.76,56,134.91,79C603.61,103.32,598.38,109.31,593.53,108.67Z"/><path class="cls-22" d="M687.6,219.13a66.55,66.55,0,0,1-.85,10.45l-114-3.61-.26-3.06c-.07-1.25-.11-2.51-.11-3.78,0-33.8,25.79-61.22,57.59-61.22S687.6,185.33,687.6,219.13Z"/><path class="cls-2" d="M690,233.51,569.29,229.7l-.53-6.44c-.09-1.41-.12-2.74-.12-4.09,0-35.84,27.53-65,61.37-65s61.37,29.16,61.37,65a68.92,68.92,0,0,1-.85,11Z"/><path class="cls-15" d="M593.53,108.67c-36.74-4.9-98.49-9.11-167-12.58,0,0-3.16-61.59-3.8-75.48-.12-2.55.85-5.94,5.09-5.94h.2l.64,0c13.3.69,23.76,1.51,30.55,2.44,47.25,6.47,104.76,56,134.91,79C603.61,103.32,598.38,109.31,593.53,108.67Z"/><path class="cls-15" d="M731.81,181.07c-7.41-27.16-33.3-34.49-42-38.59-12.54-5.9-27.28-23.53-27.28-23.53,22.86,2.94,53.46,7.73,61.23,25.07q.64,1.81,1.26,3.72a144.18,144.18,0,0,1,6.81,33.33Z"/></g><g class="cls-28"><g class="cls-13"><g class="cls-29"><g class="cls-29"><path class="cls-5" d="M32.87,111.8c.42-5.48,1-11.23,1.63-17.15,0,0,3.26-5.19,14-5.17-.55,7.12,1.45,47.23,1.5,55Z"/></g></g></g></g><g class="cls-11"><circle class="cls-30" cx="630.28" cy="217.4" r="38.28" transform="translate(-29.1 118.71) rotate(-10.52)"/><circle class="cls-31" cx="630.28" cy="217.4" r="38.28" transform="translate(-29.1 118.71) rotate(-10.52)"/><path class="cls-32" d="M681.56,215.24a51.35,51.35,0,0,0-102.67,2.15c0,1.11.05,2.2.11,3.29a51.34,51.34,0,0,0,102.57-3.3v-2.15Zm-17.1-6.16-23.75,2.27a11.51,11.51,0,0,0-1.4-1.92l11-21a35.2,35.2,0,0,1,14.17,20.69Zm-44.25-25.45a35.36,35.36,0,0,1,10.07-1.47A35,35,0,0,1,644.11,185l-10.85,20.8a13.1,13.1,0,0,0-3-.38h-1l-9.09-21.77Zm-24,25.14a35.22,35.22,0,0,1,17.54-22.46l9.06,21.74a11.83,11.83,0,0,0-2.77,3.17l-23.84-2.38Zm-1,10.08c0-.49-.1-.91-.1-1.48s.08-1.08.08-1.62l18.52,1.85,4.61.47a12,12,0,0,0,.85,3.73l-17.62,15.77a35,35,0,0,1-6.32-18.72Zm28.33,8.49a11.84,11.84,0,0,0,3.4,1.58l-.2,23.51a35.07,35.07,0,0,1-20.58-9.51Zm29.24,17.2a35,35,0,0,1-19,7.9l.14-23.57a10.88,10.88,0,0,0,2.24-1Zm4.9-5L641,222.77a12,12,0,0,0,1.26-4.46l23.16-2.21a8.1,8.1,0,0,1,.07,1.3A35,35,0,0,1,657.61,239.49Z"/></g><g class="cls-11"><circle class="cls-30" cx="163.56" cy="217.4" r="38.28" transform="translate(-20.63 17.18) rotate(-5.65)"/><circle class="cls-31" cx="163.56" cy="217.4" r="37.8"/><path class="cls-32" d="M214.85,215.24a51.34,51.34,0,0,0-102.63,2.14c0,1.11,0,2.2.11,3.29a51.35,51.35,0,0,0,102.53-3.29v-2.15Zm-17.1-6.16L174,211.35a12.4,12.4,0,0,0-1.4-1.92l11-21a35.17,35.17,0,0,1,14.18,20.69ZM153.5,183.63A35.25,35.25,0,0,1,177.39,185l-10.84,20.8a13.19,13.19,0,0,0-3-.38h-1l-9.09-21.77Zm-24,25.14A35.22,35.22,0,0,1,147,186.31l9.06,21.74a11.66,11.66,0,0,0-2.77,3.17l-23.85-2.38Zm-1,10.08c0-.49-.11-.91-.11-1.48s.09-1.08.09-1.62l18.51,1.85,4.62.47a12,12,0,0,0,.85,3.73l-17.63,15.77a35,35,0,0,1-6.32-18.72Zm28.34,8.49a11.66,11.66,0,0,0,3.39,1.58l-.2,23.51a35.07,35.07,0,0,1-20.59-9.51ZM186,244.54a35.08,35.08,0,0,1-19,7.9l.15-23.57a10.88,10.88,0,0,0,2.24-1Zm4.87-5-16.59-16.72a12.2,12.2,0,0,0,1.26-4.46l23.17-2.21a9.43,9.43,0,0,1,.06,1.3,35,35,0,0,1-7.9,22.09Z"/></g><g class="cls-11"><path class="cls-2" d="M219.23,212.21c109.51,3.39,249.39,7.36,355.59,9,0,0,4.24,16.25.85,16.25-123.58,0-355.54-7.89-355.54-7.89C216.87,229.19,219.23,212.21,219.23,212.21Z"/></g><g class="cls-33"><g class="cls-13"><g class="cls-34"><g class="cls-35"><path class="cls-5" d="M689.79,142.48c-12.54-5.9-27.28-23.53-27.28-23.53,12.61,1.62,27.58,3.81,39.77,8.35,1.47.57,2.89,1.15,4.25,1.75C714.46,132.57,691.61,143.33,689.79,142.48Z"/></g></g></g></g><g class="cls-11"><path class="cls-36" d="M354.3,153.92a36.19,36.19,0,1,1-70.89-10.12,35.64,35.64,0,0,1,34.41-26.07,36.18,36.18,0,0,1,36.52,36.19Z"/></g><g class="cls-37"><g class="cls-11"><path class="cls-38" d="M282.5,30.12c6.21.65,8.22,9.83,9.55,25.68,1,12.33-.72,30.3-1.43,41.58s4.6,35.24,4.6,35.24l-14.64-1.06L269.67,33.88C273.53,32,278.89,29.75,282.5,30.12Z"/><path class="cls-39" d="M280.58,131.55l-4.77-.35L264.89,36.49s2-1.23,4.78-2.61Z"/><path class="cls-40" d="M295.82,72.07l10.4-1.21,4.45-.52-3.33,1.57a10,10,0,0,1-1.17.49,13.32,13.32,0,0,1-6.65.62s-2.54-.32-4.07-.62c-.32-.07-.59-.13-.77-.19Z"/><path class="cls-40" d="M306.17,72.4l7.64,23.27,9.26-2.27a11.88,11.88,0,0,0,9-12.07,21.1,21.1,0,0,0-1.27-6.58c-1.9-5-.75-7-.18-8.83a32.69,32.69,0,0,1,2.21-6.15c1.24-2.34.07-7-.85-9.67s-.72-4.79-.53-8.68-6.63-11-10.37-14.06-8.48-3.23-12.34-2.55A15.34,15.34,0,0,0,302.23,28c-.45.34-.71.58-.71.58l.62.8.49.63,1.14,1.4.46.59.54.7.85,1.14,11.25,3,8,7.09-.36,2.48-.85,6-4.18,7.87-11,2.37-.72.15-.45,2.44-1,5.63,4.45-.52-3.32,1.57A10.71,10.71,0,0,1,306.17,72.4Z"/><path class="cls-40" d="M289.84,82.21l5.61-9.81c-.32-.07-.59-.13-.77-.19l1.14-.14,1.7-1.44-1.38-11.2-.33-2.72.63-2.91,2-9,.1-3.88.1-3.34L302.08,33l1.05-.13,1.06-.14.52-.07,1.69-.22-.76-4.17L304,28.11l-1.2-.13a4.44,4.44,0,0,0-.63,0A12.85,12.85,0,0,0,297.35,29c-3.44,1.37-7.33,5.24-9.47,9.33s-2.63,9.48-2.83,13.38,2.78,9.57,2.81,13a94.69,94.69,0,0,0,.41,11.64C288.39,77.14,289.65,81.81,289.84,82.21Z"/><path class="cls-41" d="M295,74.71l1.16-.13,10.38-1.22,5.85,1.7s-1.48-2.32-1.63-2.6-.32-.67-.45-1-.21-.51-.21-.51a20,20,0,0,1-.92-3.1c-.17-.85-.32-1.7-.44-2.72-.06-.56-.11-1.14-.15-1.76l-11.78-7.07L294.55,55s.32,2.31.6,5.2c.22,2.3.43,5,.43,7.15a55.27,55.27,0,0,1-.3,5.76C295.2,73.74,295,74.71,295,74.71Z"/><circle class="cls-42" cx="309.26" cy="47.92" r="17.43" transform="translate(70.43 250.16) rotate(-49.07)"/><path class="cls-43" d="M305.75,47.25a1.57,1.57,0,1,1-1.57-1.57A1.57,1.57,0,0,1,305.75,47.25Z"/><path class="cls-43" d="M322.26,50.7a1.42,1.42,0,1,1-1.42-1.42A1.42,1.42,0,0,1,322.26,50.7Z"/><path class="cls-44" d="M315,52.2a1.56,1.56,0,1,1-1.56-1.56A1.56,1.56,0,0,1,315,52.2Z"/><path class="cls-40" d="M306.92,43.91a5.08,5.08,0,0,0-3.94-.75l-.18-1a5.55,5.55,0,0,1,4.56,1.24Z"/><path class="cls-40" d="M319.61,45.81l.16.85s2.17-.85,3.2.49l.61-.59S321.63,44.76,319.61,45.81Z"/><path class="cls-45" d="M304.37,54.92s2.06,1.43,3.7,1.22c1.46-.18,2.32.48,2.49,1a3.23,3.23,0,0,1,2.72,0,3.61,3.61,0,0,0,2.55.41s-3.64,3.09-6.79,2.07A7.61,7.61,0,0,1,304.37,54.92Z"/><path class="cls-42" d="M295.09,46.07s-3.62-8.92-5.37-3.27,2,6.9,4.08,6.79Z"/><path class="cls-40" d="M303.17,33a2.64,2.64,0,0,0,2.74,2.45c2.55-.08,4.06-1.19,5.34.46s3.31,4,5.09,3.77,2.76-.06,4.5,2.34,3.69,4.16,4.73,5.94a18.05,18.05,0,0,0,3,3.54l-.07-8.24-4.72-10.11L315,28.55l-12.42,1.06Z"/><path class="cls-40" d="M292.17,40.36s.05,4.32,1.39,4.25,4.47-2.28,5.66-4.76,1.65-4,2.72-4.82c.74-.55,1.51-1.07,2.3-1.55l-.19-5.35-6.79,4.29Z"/><polygon class="cls-46" points="342.19 267.57 345.44 263.54 346.34 264.63 343.43 267.35 342.19 267.57"/><rect class="cls-47" x="341.16" y="256.72" width="1.26" height="10.23" transform="translate(-41.55 65.8) rotate(-10.37)"/><rect class="cls-48" x="342.14" y="266.86" width="1.26" height="0.59" transform="translate(-42.49 66.06) rotate(-10.37)"/><path class="cls-42" d="M348,238.82s2.32,8.63,2.6,10.18-.15,1.93.72,3.92,2.05,8.53,2.36,9.27,3.69,2.55,3.69,2.55l-3.11,2.05-6.21.39-1.7-2.5-1.65-4.5L341,255.74l-1.07-5.85-.2-3.84s.1-4.41-.08-5.37S348,238.82,348,238.82Z"/><path class="cls-49" d="M353.32,260.8a4.94,4.94,0,0,0,1.7,1.76c1,.55,5.93,3.88,6.64,6.47.36,1.33-5.64,1.45-11.6,1.24a2.84,2.84,0,0,1-2.55-1.7c-.21-.5-.34-1.12-.6-1.77a46.87,46.87,0,0,0-4-7.64c-.92-1.11-5.22-3.64-5.46-4.5s-1.39-3.51,2.23-8.6c0,0,.35,2.18.85,4.08s1.56,5.74,3,7.46,2.1,5.28,2.44,6.19a2.9,2.9,0,0,0,2.54,2c1.44.13,6.66-.85,7.31-1.33s-2.42-1.45-2.3-1.84A6.22,6.22,0,0,0,353.32,260.8Z"/><path class="cls-42" d="M310,237.82s.85,3.17,1.15,4a12.61,12.61,0,0,1,1.09,3.05,15.74,15.74,0,0,0,.68,3.67c.47,1.25,2.16,5.57,2.66,7a31.13,31.13,0,0,0,1.84,3.76l-.74,2.23-4.47,1.9-4.49-.74-.85-1.28-.89-4.9-1.24-6.79-.76-2.45a15,15,0,0,0,.22-3.73c-.22-1-1.06-5.82-1.06-5.82Z"/><path class="cls-50" d="M310,264.27c1.07.43,6.62.47,7.15.07a11.87,11.87,0,0,0,1.51-2.72,6.62,6.62,0,0,1,.44,3c-.23.52-1.07,1.81-1.48,1.89s-8,.17-9.41-.85-1.7-3.1-2.21-5.6A5.32,5.32,0,0,0,310,264.27Z"/><path class="cls-49" d="M304.24,252.5c-.48-1.21-1.15-2.22-1.12-3.2a4.62,4.62,0,0,1,.85-2.06,12.68,12.68,0,0,1,1.14,2.9c.28,1.33,1.7,9.46,1.87,10.18a2.4,2.4,0,0,0,2.72,1.75c1.62-.28,5.93-.81,6.78-1.7a4.37,4.37,0,0,0,.92-1.18s.7,1.09,1.12,1.89a3.45,3.45,0,0,1,.2.48,12.3,12.3,0,0,1-1.52,2.72c-.52.4-6.08.36-7.15-.07a5.32,5.32,0,0,1-4-4.15l-.08-.39a62.42,62.42,0,0,0-1.74-7.17Z"/><path class="cls-51" d="M297,130.77l28.85-5.34-.51-2.82L297.38,129l-.33,1.43A1.59,1.59,0,0,1,297,130.77Z"/><path class="cls-52" d="M302.49,239.72c.27,1.52,5.33,3.35,7.64,2.93s3.58-3,3.58-3c-.54-1.87-.49-7-.46-9s1.28-15.57,2-20.23.1-15.55-.42-22.7,2.54-23.52,3.1-25a10.71,10.71,0,0,1,2.18-3.15s1.11,3.92,2.36,8.61,4.66,23.33,7.2,35.06,3.18,17.5,5.29,22.59,3.88,15.82,3.88,15.82l10.59-1.95s-6.41-37.56-7.69-42.42-.11-4.9-.95-29.89-10.26-36.7-10.26-36.7l-4.94-6.68c-4.83,2.65-28.53,6.36-28.53,6.36a2.63,2.63,0,0,1-.06.39c-.68,3-6.58,17.38-5.73,25,.89,8,6.44,33.09,6.78,37.16s2.71,17,2.93,24.52S302.21,238.2,302.49,239.72Z"/><polygon class="cls-51" points="327.19 131.92 327.77 126.99 329.12 128.76 327.77 132.04 327.19 131.92"/><polygon class="cls-51" points="297.77 144.27 294.12 139.68 293.44 142.03 295.53 144.68 297.77 144.27"/><path class="cls-53" d="M327.05,132l9.12,10.18.61-2.54-4.16-10.16-3.81-1.39-.25-.2v.1S328.24,130.93,327.05,132Z"/><path class="cls-53" d="M297.77,144.27l-5.21,13.36a12,12,0,0,1-3.14-2.84c-1.74-2.09-.2-6.79-.2-6.79l4.4-6.72S295.81,144,297.77,144.27Z"/><polygon class="cls-51" points="336.17 142.25 335.81 142.7 326.54 132.47 327.05 132.03 336.17 142.25"/><polygon class="cls-51" points="297.77 144.27 292.56 157.63 293.17 157.99 298.32 144.44 297.77 144.27"/><path class="cls-54" d="M273.51,41.31l-.28-.9C273.39,40.89,273.48,41.19,273.51,41.31Z"/><path class="cls-54" d="M273.51,41.31l-.28-.9C273.39,40.89,273.48,41.19,273.51,41.31Z"/><polygon class="cls-38" points="284.37 75.88 293.87 88.54 293.87 95.19 277.4 95.19 277.4 84.11 284.37 75.88"/><path class="cls-53" d="M283.2,101s3.39-30.94,19.21-30.92,19.67,29.74,19.67,29.74Z"/><path class="cls-53" d="M302.41,70.07s-8.62-2-13.51,10.7l14.24-6.51Z"/><path class="cls-38" d="M159.18,32.15c6.21.64,8.23,9.83,9.55,25.68,1,12.33-.7,30.3-1.42,41.57s4.59,35.24,4.59,35.24l-14.63-1L146.36,35.91C150.19,34,155.58,31.77,159.18,32.15Z"/><path class="cls-39" d="M157.27,133.57l-4.76-.34L141.58,38.51s2-1.23,4.78-2.6Z"/><polygon class="cls-38" points="161.06 77.89 170.55 90.56 170.55 97.22 154.09 97.22 154.09 86.13 161.06 77.89"/></g><path class="cls-1" d="M182.61,96.46h28.83a3.48,3.48,0,0,1,0,7H182.61a3.48,3.48,0,0,1,0-7Z"/><path class="cls-55" d="M180.77,54.8l5.38,9.26s1.79-3.39,1.71-5.54-2.78-9-6.07-10.28"/><polygon class="cls-55" points="188.57 45.29 189.19 48.48 187.56 49.03 186.85 47.44 188.57 45.29"/><path class="cls-55" d="M180.47,46.61c.11.6.73.92,1.22,1.28a7.81,7.81,0,0,1,2.06,2.53,33,33,0,0,1,1.82,3.67,5.21,5.21,0,0,1,.55,2.4.73.73,0,0,1-.74.83,4.41,4.41,0,0,1-2.27-.64,7.16,7.16,0,0,1-1.59-1,4.8,4.8,0,0,1-1.47-3.07,9.3,9.3,0,0,1,.39-3.43"/><path class="cls-55" d="M198.94,36s1.93-9.86-2.19-12-4.53,0-7.66-.39-4-3.13-7.19-2.27-3.39,2.86-5.65,3.6-4.4-.15-6.59,2.42-1.32,3.37-2,4.76-2.63,2-2.57,4.26-1.06,4-1.06,6.93,2,6.39,2.06,7.92,1.06,5.85,5.79,5.65S198.94,36,198.94,36Z"/><path class="cls-55" d="M195.67,32.87a8.1,8.1,0,0,0-.52,1.48,2.54,2.54,0,0,1-2.59,1.29,7.08,7.08,0,0,1-2.84-1.15,32.93,32.93,0,0,0-5.06-2.73A8.91,8.91,0,0,0,179,31.3a7.74,7.74,0,0,0-4.87,4.95,11.94,11.94,0,0,0,0,7.1,8.6,8.6,0,0,1,.62,3.92c-.09.48-.42,1-.91,1s-.7-.45-.89-.83l-2.13-4.17a6.5,6.5,0,0,0-2.09-2.74,3.8,3.8,0,0,0-1.06-.45,18,18,0,0,1,29.61-7.8l-.13,0A1.71,1.71,0,0,0,195.67,32.87Z"/><path class="cls-56" d="M172.58,46.73a14.21,14.21,0,0,1-1.25-2.94,13.12,13.12,0,0,0-.88-2.2,3.77,3.77,0,0,0-2.66-1.74,2.07,2.07,0,0,0-1.18.15,2.28,2.28,0,0,0-1,2.06,11.41,11.41,0,0,0,1.08,4.44,3,3,0,0,0,1.23,1.74,6.05,6.05,0,0,0,2.34.21,3.14,3.14,0,0,1,2.47,1.63"/><path class="cls-57" d="M189.89,57.85s-8.43,9.42-7.31,20l-11.12-6.3s2.81-10.06,2.44-15.15Z"/><path class="cls-58" d="M172.46,106.75S160,65.68,176.13,68.25c19.09,3,16.49,39.37,16.49,39.37Z"/><polygon class="cls-59" points="195.24 90.88 238.65 97.67 238.02 104.18 194.72 104.95 197.99 98.5 195.24 90.88"/><path class="cls-56" d="M168.76,40.53a6.5,6.5,0,0,1,2.09,2.74L173,47.44c.19.38.46.81.89.83s.82-.52.91-1a8.6,8.6,0,0,0-.62-3.92,11.94,11.94,0,0,1,0-7.1A7.74,7.74,0,0,1,179,31.3a8.91,8.91,0,0,1,5.64.46,32.93,32.93,0,0,1,5.06,2.73,7.08,7.08,0,0,0,2.84,1.15,2.54,2.54,0,0,0,2.59-1.29,8.1,8.1,0,0,1,.52-1.48,1.71,1.71,0,0,1,1.51-.61l.13,0a18,18,0,1,1-29.61,7.8A3.8,3.8,0,0,1,168.76,40.53Z"/><path class="cls-60" d="M177.44,39.44a11.4,11.4,0,0,1,5.66-.87V40s-1.1.93-5,.59Z"/><path class="cls-60" d="M195.6,38.49l.05,1.34s5.82-.31,6.65-.22l-.66-1.9A20.26,20.26,0,0,0,195.6,38.49Z"/><circle class="cls-61" cx="184.16" cy="44.38" r="1.46"/><circle class="cls-61" cx="198.53" cy="44.53" r="1.26"/><path class="cls-5" d="M184.91,51.19s6.41,1.56,10.47,1.36c0,0-1.37,2.91-4,2.66C188.48,54.94,186.39,55.11,184.91,51.19Z"/><polygon class="cls-60" points="181.12 40.6 186.84 39.88 186.84 37.94 180.64 38.63 181.12 40.6"/><path class="cls-55" d="M173,25.41s-11,.1-8.41,14.27l3.65-2.44Z"/><path class="cls-59" d="M190.15,83.32,202.9,99v7.24l-11.75-.87L176.47,83.57a5.85,5.85,0,0,1,.42-7.06h0a5.82,5.82,0,0,1,9.32.66Z"/><polygon class="cls-62" points="235.39 97.19 248.36 96.92 254.85 109.57 249.74 108.55 242.93 103.97 238.56 104.16 233.36 104.14 235.39 97.19"/><polygon class="cls-58" points="192.62 107.62 202.12 134.4 182.51 140.88 174.27 107.62 192.62 107.62"/><path class="cls-63" d="M239.29,104.14H177.74c-4.11,0-7.44,1.56-7.44,3.48s3.33,3.49,7.44,3.49h61.55c4.11,0,7.44-1.56,7.44-3.49S243.4,104.14,239.29,104.14Z"/><path id="_Path_10" data-name=" Path 10" class="cls-64" d="M291,220.26l-22.35-.82a2.07,2.07,0,0,1-1.92-2.2l.27-7.47,4,.15,18.92,8a1.67,1.67,0,0,1,.94,1.57Z"/><path class="cls-65" d="M270.87,186.68l-10.8-40.18-55.89-12.56-20,5.38,3.39,17.1,61.83,3.42c.24,0,.36,4.85.39,5.33.21,3.58.53,7.29,2,10.6,1.38,3.1,3.71,5.61,5.49,8.46a20.69,20.69,0,0,1,1.16,2.12,56.23,56.23,0,0,1,2.45,7c.85,2.75,1.71,5.5,2.56,8.25l2.7,8.71,10.9.6Z"/><path class="cls-66" d="M190.67,42.92a11.83,11.83,0,0,1,3.17,3.93,3.33,3.33,0,0,1,.31,1.33,1.27,1.27,0,0,1-.88,1.18c-.8.25-1.6.47-2.42.66.73-.41,1.48-.79,2.24-1.13s.5-1.07.15-1.78A12.63,12.63,0,0,0,192.05,45Z"/></g><g class="cls-67"><g class="cls-68"><g class="cls-69"><g class="cls-70"><path class="cls-5" d="M176.49,22.55S100.66,19,90.21,38.73Z"/></g></g></g></g><g class="cls-71"><g class="cls-11"><path class="cls-72" d="M470,63.72s-8.3,9.28-7.2,19.66l-12.94-7.33s4.76-8.79,4.39-13.79Z"/><path class="cls-73" d="M440.61,113.72s0-42.28,15.9-39.74c18.79,3,16.23,38.78,16.23,38.78Z"/><polygon class="cls-74" points="477.04 98.73 518.22 81.37 520.49 87.4 482.84 111.34 482.84 104.22 477.04 98.73"/><path class="cls-75" d="M478.94,42.15s1.9-9.7-2.16-11.8-4.46,0-7.54-.4-3.93-3.08-7.07-2.22-3.35,2.82-5.58,3.54-4.33-.15-6.49,2.38-1.29,3.32-1.93,4.69-2.54,2-2.54,4.25-1,3.88-1,6.79,2,6.29,2,7.8,1,5.76,5.71,5.57S478.94,42.15,478.94,42.15Z"/><path class="cls-76" d="M449.22,46.66a6.43,6.43,0,0,1,2,2.72l2.1,4.09c.19.38.46.85.85.85s.8-.51.9-1a8.68,8.68,0,0,0-.62-3.87,11.74,11.74,0,0,1,0-7,7.64,7.64,0,0,1,4.79-4.87,8.71,8.71,0,0,1,5.56.45,32.77,32.77,0,0,1,5,2.69,6.79,6.79,0,0,0,2.8,1.13,2.45,2.45,0,0,0,2.54-1.27,8,8,0,0,1,.51-1.45,1.69,1.69,0,0,1,1.5-.6h.12a17.71,17.71,0,1,1-29.16,7.68A3.57,3.57,0,0,1,449.22,46.66Z"/><path class="cls-77" d="M457.77,45.59a11.24,11.24,0,0,1,5.58-.85v1.41s-1.09.92-4.89.59Z"/><path class="cls-77" d="M475.66,44.66l0,1.31s5.73-.3,6.54-.21l-.65-1.87A19.55,19.55,0,0,0,475.66,44.66Z"/><path class="cls-78" d="M472.41,52.79c.92.13,1.59.81,1.49,1.52a1.53,1.53,0,0,1-1.85,1c-.93-.13-1.6-.81-1.5-1.52A1.54,1.54,0,0,1,472.41,52.79Z"/><path class="cls-61" d="M465.82,50.45A1.44,1.44,0,1,1,464.38,49,1.44,1.44,0,0,1,465.82,50.45Z"/><path class="cls-61" d="M479.78,50.61a1.25,1.25,0,1,1-1.24-1.25A1.25,1.25,0,0,1,479.78,50.61Z"/><path class="cls-5" d="M465.13,57.16s6.31,1.54,10.31,1.35c0,0-1.36,2.85-3.91,2.62C468.64,60.86,466.58,61,465.13,57.16Z"/><path class="cls-75" d="M475.72,39.12a7.66,7.66,0,0,0-.51,1.46,2.5,2.5,0,0,1-2.55,1.27,6.86,6.86,0,0,1-2.8-1.14,34.63,34.63,0,0,0-5-2.69,8.7,8.7,0,0,0-5.56-.44,7.65,7.65,0,0,0-4.79,4.86,11.9,11.9,0,0,0,0,7,8.8,8.8,0,0,1,.62,3.87c-.09.48-.42,1-.9,1s-.69-.45-.85-.85l-2.13-4.06a6.4,6.4,0,0,0-2-2.71,3.6,3.6,0,0,0-1.05-.44,17.71,17.71,0,0,1,29.17-7.68h-.13A1.71,1.71,0,0,0,475.72,39.12Z"/><path class="cls-75" d="M469.86,40.71s5.25,4.19,11.74,3.18c0,0,3.27-9.11-4.82-13.58S469.86,40.71,469.86,40.71Z"/><polygon class="cls-77" points="461.39 46.73 467.02 46.03 467.02 44.11 460.92 44.79 461.39 46.73"/><path class="cls-75" d="M455.9,31.44s5-5.78,9.52-5.94,15.36,4.24,16.66,12.11Z"/><path class="cls-75" d="M453.39,31.78s-10.81.09-8.28,14l3.59-2.39Z"/><path class="cls-75" d="M447.39,60.72l5.3,9.12s1.76-3.34,1.7-5.46-2.74-8.84-5.94-10.12"/><polygon class="cls-75" points="455.06 51.35 455.68 54.49 454.07 55.03 453.37 53.47 455.06 51.35"/><path class="cls-76" d="M453,52.77a12.7,12.7,0,0,1-1.23-2.89,15,15,0,0,0-.85-2.17,3.71,3.71,0,0,0-2.62-1.7,2.17,2.17,0,0,0-1.18.15,2.26,2.26,0,0,0-1,2,11.33,11.33,0,0,0,1,4.35,3.11,3.11,0,0,0,1.21,1.7,6.3,6.3,0,0,0,2.31.2,3.06,3.06,0,0,1,2.42,1.63"/><path class="cls-79" d="M515.35,99.35l14.82-17.81a2.45,2.45,0,1,1,3.77,3.14l-14.82,17.81a2.45,2.45,0,0,1-3.77-3.14Z"/><path class="cls-75" d="M447.09,52.66c.11.58.72.91,1.2,1.25a7.56,7.56,0,0,1,2,2.54,30.35,30.35,0,0,1,1.8,3.61,5.36,5.36,0,0,1,.55,2.37.9.9,0,0,1-.29.67.82.82,0,0,1-.44.14,4.31,4.31,0,0,1-2.24-.63,6.85,6.85,0,0,1-1.57-1,4.64,4.64,0,0,1-1.44-3,9.27,9.27,0,0,1,.37-3.39"/><path class="cls-38" d="M426.38,35.51c3-1.86,7.14-4.07,10.1-4.06,5.09,0,7.44,7.32,9.76,20.06,1.82,9.91,1.82,24.61,2.14,33.79s6.51,28.21,6.51,28.21L467,162.12h53.46l-18.57,16.41H455.67Z"/><path class="cls-39" d="M455.66,178.51h-3.34L422.71,38s1.53-1.15,3.67-2.49Z"/><path class="cls-74" d="M470.28,88.81l12.53,15.41v7.1l-11.56-.85L456.82,89a5.74,5.74,0,1,1,9.59-6.31Z"/><polygon class="cls-76" points="518.09 81.48 529.33 72.88 541.59 80.3 536.83 82.2 528.45 81.69 525.23 84.7 520.36 87.51 518.09 81.48"/><polygon class="cls-80" points="472.71 112.74 482.07 139.12 462.76 145.5 454.64 112.74 472.71 112.74"/><polygon class="cls-63" points="550.52 187.36 537.72 148.43 482.07 139.12 462.76 145.5 467.02 162.12 528 162.12 530.49 177.17 538.6 187.36 547.22 210.88 557.97 210.88 550.52 187.36"/><path class="cls-63" d="M482.56,109.31H454.17a3.43,3.43,0,0,0,0,6.86h28.39a3.43,3.43,0,1,0,0-6.86Z"/><rect class="cls-79" x="526.5" y="90.53" width="5.95" height="3.19" transform="translate(119.96 440.15) rotate(-50.23)"/><path class="cls-81" d="M531.9,107s-4.47-5-3.12-11.6l6.62-7.91,4.43-5.09s27.36,8,26.94,25.29Z"/></g></g><g class="cls-82"><path class="cls-83" d="M316.43,173.74h0a.94.94,0,0,0-.16-1,1,1,0,0,0-1.33-.07,1,1,0,0,0-.22.31l-1.89,4.26L311,173s0,0,0,0v0a1.05,1.05,0,0,0-.2-.27.94.94,0,0,0-1.51,1v0a.11.11,0,0,0,0,.08L312,180a1,1,0,0,0,.48.47.94.94,0,0,0,1.25-.47l2.73-6.18Z"/><path class="cls-83" d="M319.17,173.35a.94.94,0,0,0-1.88,0v6.2a.94.94,0,0,0,1.88,0Z"/><path class="cls-5" d="M328,176.45a4,4,0,1,0-4,4,4,4,0,0,0,1.76-.4l.05-1.07-.75-.54-.1-.09a2.18,2.18,0,0,1-1,.22,2.16,2.16,0,1,1,2.17-2.16v3.09h0a.92.92,0,0,0,0,.29.94.94,0,0,0,1.84-.29h0Z"/><path class="cls-5" d="M335.62,149.14a4.93,4.93,0,0,1-7,0,5.12,5.12,0,0,1-1-1.5,9.7,9.7,0,0,1-18.95-2.91,4.23,4.23,0,0,0-7.22-3,4.31,4.31,0,0,0-1.24,2.95h0a18.21,18.21,0,0,0,5.32,12.81c3.66,3.67,12.74,12.64,12.74,12.64s9.5-9.19,12.94-12.64a18.19,18.19,0,0,0,4.87-8.86A6.28,6.28,0,0,1,335.62,149.14Z"/><path class="cls-5" d="M336.49,144.46a18.15,18.15,0,0,0-35.92-3.61,4.43,4.43,0,0,1,.49-.58,4.93,4.93,0,0,1,8,1.5,9.7,9.7,0,0,1,19,2.69,1.61,1.61,0,0,0,0,.22v.16a4.28,4.28,0,0,0,1.22,2.8,4.21,4.21,0,0,0,6,0,4.12,4.12,0,0,0,1.23-2.78c0-.06,0-.12,0-.17A1.93,1.93,0,0,0,336.49,144.46Z"/></g></g></g></svg>